<?xml version="1.0" encoding="UTF-8" standalone="no"?>
<!DOCTYPE svg PUBLIC "-//W3C//DTD SVG 1.1//EN" "http://www.w3.org/Graphics/SVG/1.1/DTD/svg11.dtd">
<svg width="100%" height="100%" viewBox="0 0 600 400" version="1.1" xmlns="http://www.w3.org/2000/svg" xmlns:xlink="http://www.w3.org/1999/xlink" xml:space="preserve" xmlns:serif="http://www.serif.com/" style="fill-rule:evenodd;clip-rule:evenodd;">
    <rect x="0" y="0" width="600" height="400" style="fill:white;"/>
    <rect x="53.939" y="11.811" width="534.252" height="344.594" style="fill:white;"/>
    <path d="M69.059,356.405L69.059,11.811" style="fill:none;fill-rule:nonzero;stroke:black;stroke-opacity:0.1;stroke-width:0.5px;"/>
    <path d="M237.062,356.405L237.062,11.811" style="fill:none;fill-rule:nonzero;stroke:black;stroke-opacity:0.1;stroke-width:0.5px;"/>
    <path d="M405.065,356.405L405.065,11.811" style="fill:none;fill-rule:nonzero;stroke:black;stroke-opacity:0.1;stroke-width:0.5px;"/>
    <path d="M573.068,356.405L573.068,11.811" style="fill:none;fill-rule:nonzero;stroke:black;stroke-opacity:0.1;stroke-width:0.5px;"/>
    <path d="M53.939,346.652L588.19,346.652" style="fill:none;fill-rule:nonzero;stroke:black;stroke-opacity:0.1;stroke-width:0.5px;"/>
    <path d="M53.939,310.53L588.19,310.53" style="fill:none;fill-rule:nonzero;stroke:black;stroke-opacity:0.1;stroke-width:0.5px;"/>
    <path d="M53.939,274.41L588.19,274.41" style="fill:none;fill-rule:nonzero;stroke:black;stroke-opacity:0.1;stroke-width:0.5px;"/>
    <path d="M53.939,238.289L588.19,238.289" style="fill:none;fill-rule:nonzero;stroke:black;stroke-opacity:0.1;stroke-width:0.5px;"/>
    <path d="M53.939,202.168L588.19,202.168" style="fill:none;fill-rule:nonzero;stroke:black;stroke-opacity:0.1;stroke-width:0.5px;"/>
    <path d="M53.939,166.048L588.19,166.048" style="fill:none;fill-rule:nonzero;stroke:black;stroke-opacity:0.1;stroke-width:0.5px;"/>
    <path d="M53.939,129.927L588.19,129.927" style="fill:none;fill-rule:nonzero;stroke:black;stroke-opacity:0.1;stroke-width:0.5px;"/>
    <path d="M53.939,93.806L588.19,93.806" style="fill:none;fill-rule:nonzero;stroke:black;stroke-opacity:0.1;stroke-width:0.5px;"/>
    <path d="M53.939,57.685L588.19,57.685" style="fill:none;fill-rule:nonzero;stroke:black;stroke-opacity:0.1;stroke-width:0.5px;"/>
    <path d="M53.939,21.564L588.19,21.564" style="fill:none;fill-rule:nonzero;stroke:black;stroke-opacity:0.1;stroke-width:0.5px;"/>
    <path d="M53.939,356.405L588.19,356.405" style="fill:none;fill-rule:nonzero;stroke:black;stroke-width:1px;"/>
    <path d="M53.939,356.405L53.939,11.811" style="fill:none;fill-rule:nonzero;stroke:black;stroke-width:1px;"/>
    <path d="M69.059,356.405L69.059,352.27" style="fill:none;fill-rule:nonzero;stroke:black;stroke-width:1px;"/>
    <path d="M237.062,356.405L237.062,352.27" style="fill:none;fill-rule:nonzero;stroke:black;stroke-width:1px;"/>
    <path d="M405.065,356.405L405.065,352.27" style="fill:none;fill-rule:nonzero;stroke:black;stroke-width:1px;"/>
    <path d="M573.068,356.405L573.068,352.27" style="fill:none;fill-rule:nonzero;stroke:black;stroke-width:1px;"/>
    <path d="M53.939,346.652L60.35,346.652" style="fill:none;fill-rule:nonzero;stroke:black;stroke-width:1px;"/>
    <path d="M53.939,310.53L60.35,310.53" style="fill:none;fill-rule:nonzero;stroke:black;stroke-width:1px;"/>
    <path d="M53.939,274.41L60.35,274.41" style="fill:none;fill-rule:nonzero;stroke:black;stroke-width:1px;"/>
    <path d="M53.939,238.289L60.35,238.289" style="fill:none;fill-rule:nonzero;stroke:black;stroke-width:1px;"/>
    <path d="M53.939,202.168L60.35,202.168" style="fill:none;fill-rule:nonzero;stroke:black;stroke-width:1px;"/>
    <path d="M53.939,166.048L60.35,166.048" style="fill:none;fill-rule:nonzero;stroke:black;stroke-width:1px;"/>
    <path d="M53.939,129.927L60.35,129.927" style="fill:none;fill-rule:nonzero;stroke:black;stroke-width:1px;"/>
    <path d="M53.939,93.806L60.35,93.806" style="fill:none;fill-rule:nonzero;stroke:black;stroke-width:1px;"/>
    <path d="M53.939,57.685L60.35,57.685" style="fill:none;fill-rule:nonzero;stroke:black;stroke-width:1px;"/>
    <path d="M53.939,21.564L60.35,21.564" style="fill:none;fill-rule:nonzero;stroke:black;stroke-width:1px;"/>
    <g transform="matrix(1,0,0,1,69.0588,369.905)">
        <text x="-3.337px" y="0px" style="font-family:'ArialMT', 'Arial', sans-serif;font-size:12px;">0</text>
    </g>
    <g transform="matrix(1,0,0,1,237.062,369.905)">
        <text x="-10.011px" y="0px" style="font-family:'ArialMT', 'Arial', sans-serif;font-size:12px;">100</text>
    </g>
    <g transform="matrix(1,0,0,1,405.065,369.905)">
        <text x="-10.011px" y="0px" style="font-family:'ArialMT', 'Arial', sans-serif;font-size:12px;">200</text>
    </g>
    <g transform="matrix(1,0,0,1,573.067,369.905)">
        <text x="-10.011px" y="0px" style="font-family:'ArialMT', 'Arial', sans-serif;font-size:12px;">300</text>
    </g>
    <g transform="matrix(1,0,0,1,47.9385,351.027)">
        <text x="-16.682px" y="0px" style="font-family:'ArialMT', 'Arial', sans-serif;font-size:12px;">0.0</text>
    </g>
    <g transform="matrix(1,0,0,1,47.9385,314.905)">
        <text x="-16.682px" y="0px" style="font-family:'ArialMT', 'Arial', sans-serif;font-size:12px;">0.1</text>
    </g>
    <g transform="matrix(1,0,0,1,47.9385,278.785)">
        <text x="-16.682px" y="0px" style="font-family:'ArialMT', 'Arial', sans-serif;font-size:12px;">0.2</text>
    </g>
    <g transform="matrix(1,0,0,1,47.9385,242.664)">
        <text x="-16.682px" y="0px" style="font-family:'ArialMT', 'Arial', sans-serif;font-size:12px;">0.3</text>
    </g>
    <g transform="matrix(1,0,0,1,47.9385,206.543)">
        <text x="-16.682px" y="0px" style="font-family:'ArialMT', 'Arial', sans-serif;font-size:12px;">0.4</text>
    </g>
    <g transform="matrix(1,0,0,1,47.9385,170.423)">
        <text x="-16.682px" y="0px" style="font-family:'ArialMT', 'Arial', sans-serif;font-size:12px;">0.5</text>
    </g>
    <g transform="matrix(1,0,0,1,47.9385,134.302)">
        <text x="-16.682px" y="0px" style="font-family:'ArialMT', 'Arial', sans-serif;font-size:12px;">0.6</text>
    </g>
    <g transform="matrix(1,0,0,1,47.9385,98.1805)">
        <text x="-16.682px" y="0px" style="font-family:'ArialMT', 'Arial', sans-serif;font-size:12px;">0.7</text>
    </g>
    <g transform="matrix(1,0,0,1,47.9385,62.0595)">
        <text x="-16.682px" y="0px" style="font-family:'ArialMT', 'Arial', sans-serif;font-size:12px;">0.8</text>
    </g>
    <g transform="matrix(1,0,0,1,47.9385,25.9387)">
        <text x="-16.682px" y="0px" style="font-family:'ArialMT', 'Arial', sans-serif;font-size:12px;">0.9</text>
    </g>
    <g transform="matrix(1,0,0,1,321.062,389.87)">
        <text x="-89.868px" y="0px" style="font-family:'ArialMT', 'Arial', sans-serif;font-size:16.5px;">Monte Carlo macrosteps</text>
    </g>
    <g transform="matrix(-3.82857e-16,-1,1,-3.82857e-16,22.3215,184.108)">
        <text x="-51.365px" y="0px" style="font-family:'ArialMT', 'Arial', sans-serif;font-size:16.5px;">magnetization</text>
    </g>
    <path d="M70.739,17.338L72.419,17.374L74.099,17.229L75.779,17.374L77.459,17.446L79.139,17.446L82.499,17.374L84.179,17.374L85.859,17.554L87.539,17.554L89.219,17.518L90.899,17.59L92.579,17.446L94.259,17.482L95.939,17.518L97.62,17.482L99.299,17.41L100.98,17.446L102.659,17.446L104.34,17.482L106.019,17.446L107.7,17.41L109.379,17.518L111.06,17.41L112.74,17.41L114.42,17.518L116.1,17.301L117.78,17.518L119.46,17.627L121.14,17.446L122.82,17.41L124.5,17.554L126.18,17.482L127.86,17.482L129.54,17.374L131.22,17.301L132.9,17.338L134.58,17.049L136.26,17.229L137.94,17.41L139.62,17.301L141.3,17.301L142.98,17.41L144.66,17.482L146.34,17.482L148.02,17.374L149.701,17.554L151.381,17.446L153.061,17.482L154.741,17.59L156.421,17.338L158.101,17.482L159.781,17.446L161.461,17.301L163.141,17.193L164.821,17.374L166.501,17.301L168.181,17.265L169.861,17.301L171.541,17.374L173.221,17.265L174.901,17.265L176.581,17.482L178.261,17.338L179.941,17.518L181.621,17.482L183.301,17.41L184.981,17.554L186.661,17.59L188.341,17.41L190.021,17.446L191.701,17.374L193.381,17.41L195.061,17.338L196.741,17.41L198.421,17.518L200.101,17.41L201.782,17.482L203.462,17.265L205.142,17.301L206.821,17.229L208.502,17.193L210.182,17.446L211.862,17.518L213.542,17.663L216.902,17.518L218.582,17.663L220.262,17.699L221.942,17.663L223.622,17.482L225.302,17.265L226.982,17.338L228.662,17.301L230.342,17.699L232.022,17.627L233.702,17.374L235.382,17.374L237.062,17.518L238.742,53.386L240.422,89.868L242.102,125.7L243.782,159.69L245.462,191.26L247.142,219.651L248.822,244.213L250.503,265.415L252.183,283.405L253.863,298.25L255.542,310.133L257.223,319.418L258.902,326.823L260.582,332.095L262.263,336.068L263.943,338.923L265.623,340.765L267.303,341.668L268.983,342.245L270.663,342.608L272.342,342.788L274.023,343.113L275.703,343.075L277.383,343.04L279.063,343.148L280.743,343.258L284.103,342.967L285.783,343.185L287.463,343.258L289.143,343.22L290.823,342.86L292.503,343.04L294.183,342.967L295.863,343.148L297.543,343.113L299.223,343.113L300.902,343.258L304.263,343.113L305.943,343.148L307.623,343.148L309.303,343.005L310.983,342.933L312.663,343.148L314.342,342.895L316.023,342.608L317.703,342.86L319.383,342.967L321.063,343.04L322.745,343.258L324.425,342.967L326.105,342.933L327.785,342.933L329.465,342.967L331.145,343.075L332.825,343.005L334.505,342.933L341.225,342.933L342.905,342.967L344.585,342.967L346.265,343.148L347.945,343.005L349.625,342.933L351.305,342.895L352.985,342.895L356.345,343.04L358.025,342.895L359.705,342.86L361.385,342.967L363.065,342.967L364.745,343.04L366.425,343.148L368.105,342.86L369.785,343.04L371.465,343.075L373.145,343.005L374.825,342.933L376.505,342.967L378.185,342.967L379.865,342.933L381.545,343.075L383.225,343.113L384.905,343.075L386.585,343.005L388.265,342.967L389.945,343.005L391.625,342.823L393.305,342.933L394.985,343.258L396.665,343.005L398.345,343.113L400.025,342.895L401.705,343.075L403.385,343.148L405.065,343.113L406.745,343.075L410.105,343.075L411.785,343.258L413.465,343.22L415.145,343.293L416.825,343.04L418.505,343.258L420.185,343.04L421.865,342.967L423.545,342.933L425.225,342.895L426.905,343.258L428.585,343.185L430.265,343.148L431.945,343.185L433.625,343.113L435.305,342.967L436.985,343.005L438.665,343.04L440.345,343.148L442.025,343.148L443.705,343.04L445.385,343.005L447.065,343.293L448.745,343.258L450.428,343.22L452.108,343.075L453.788,342.967L455.467,342.933L457.147,343.04L458.828,343.185L460.508,343.075L462.188,342.895L463.868,343.04L465.548,343.005L467.228,343.075L468.908,342.75L470.587,342.678L472.268,343.22L473.948,343.005L475.628,343.005L477.308,343.22L478.988,343.185L480.668,343.075L482.348,343.148L484.027,343.148L485.708,343.22L487.388,342.967L489.068,343.075L490.748,343.113L492.428,342.933L495.788,342.933L497.467,343.04L499.147,342.823L500.828,342.823L502.508,343.113L504.188,343.04L505.868,343.148L507.548,343.185L509.228,343.04L510.908,343.075L512.587,343.075L514.268,343.148L515.948,343.258L517.628,343.293L519.308,343.148L520.987,343.185L522.668,343.22L524.348,343.293L526.028,343.22L527.708,343.293L529.388,343.04L531.068,343.075L532.747,342.967L534.428,343.113L536.108,343.005L539.468,343.005L541.148,343.075L542.828,343.113L544.508,343.148L546.188,343.148L547.867,343.113L549.548,343.075L551.228,343.365L552.908,343.148L554.588,343.075L556.268,343.113L557.948,343.113L559.628,343.005L561.308,343.113L562.988,342.967L564.668,342.933L566.348,343.04L568.028,343.293L569.708,343.005L571.388,342.933L576.428,342.933L578.11,343.148L579.79,343.258L581.47,343.22L583.15,343.005L586.51,343.075L588.19,343.04L591.55,343.04L593.23,343.185L594.91,343.005L596.59,343.148L598.27,343.005L599.95,343.113L601.63,343.04L603.31,343.185L604.99,343.075L606.67,343.185L608.35,343.293L610.03,343.113L611.71,342.967L613.39,343.4L615.07,343.365L616.75,342.895L618.43,343.185L620.11,343.22L621.79,343.148L623.47,343.005L625.15,343.075L626.83,343.148L628.51,343.005L630.19,343.04L631.87,343.148L633.55,343.005L635.23,343.113L636.91,342.895L638.59,343.075L640.27,342.823L641.95,342.933L643.63,343.113L645.31,343.04L646.99,343.148L648.67,342.788L650.35,343.005L652.03,342.967L653.71,343.113L655.39,343.113L657.07,343.075L658.75,342.895L660.43,343.005L662.11,343.04L663.79,343.148L665.47,343.075L667.15,343.113L668.83,342.933L670.51,343.258L672.19,343.33L673.87,343.185L675.55,343.22L678.91,342.86L680.59,342.933L682.27,342.86L683.95,343.005L685.63,342.895L687.31,342.788L688.99,343.005L690.67,342.788L692.35,342.933L694.03,343.04L695.71,342.895L697.39,343.258L699.07,343.258L700.75,343.04L702.43,343.293L704.11,343.258L705.793,342.967L707.473,343.148L709.153,343.005L710.833,343.005L712.513,342.895L714.193,343.148L715.872,343.33L717.553,343.293L719.233,342.895L720.913,343.005L722.593,342.967L724.273,343.22L725.953,343.148L727.633,343.148L729.313,342.967L730.992,343.04L732.673,342.933L736.033,343.293L737.713,343.293L739.393,343.148L741.073,343.113" style="fill:none;fill-rule:nonzero;stroke:rgb(65,0,235);stroke-width:1.5px;"/>
    <path d="M70.739,17.301L72.419,17.301L74.099,17.193L75.779,17.193L77.459,17.157L79.139,17.301L80.819,17.374L84.179,17.374L85.859,17.301L87.539,17.338L89.219,17.265L90.899,17.265L92.579,17.229L94.259,17.265L95.939,17.229L97.62,17.265L99.299,17.41L100.98,17.446L102.659,17.446L104.34,17.482L106.019,17.446L107.7,17.301L109.379,17.229L111.06,17.338L112.74,17.482L114.42,17.554L116.1,17.41L117.78,17.518L119.46,17.554L121.14,17.554L122.82,17.374L126.18,17.374L129.54,17.446L131.22,17.518L132.9,17.554L134.58,17.446L136.26,17.374L137.94,17.41L139.62,17.374L141.3,17.301L142.98,17.338L144.66,17.482L146.34,17.41L149.701,17.41L151.381,17.446L153.061,17.482L156.421,17.482L158.101,17.374L159.781,17.374L161.461,17.446L163.141,17.301L164.821,17.301L166.501,17.265L169.861,17.338L171.541,17.446L173.221,17.446L174.901,17.41L176.581,17.446L178.261,17.265L179.941,17.265L181.621,17.229L183.301,17.265L184.981,17.229L186.661,17.265L188.341,17.121L190.021,17.049L191.701,17.157L193.381,17.301L195.061,17.338L196.741,17.193L198.421,17.338L200.101,17.374L203.462,17.374L205.142,17.338L206.821,17.229L208.502,17.374L210.182,17.338L211.862,17.482L213.542,17.374L215.222,17.482L216.902,17.482L218.582,17.41L220.262,17.446L221.942,17.518L223.622,17.518L225.302,17.265L226.982,17.41L228.662,17.301L230.342,17.374L232.022,17.301L233.702,17.374L235.382,17.265L237.062,17.446L238.742,169.226L240.422,250.75L242.102,294.89L243.782,318.623L245.462,331.518L247.142,338.418L248.822,341.342L250.503,342.535L252.183,342.823L253.863,343.075L255.542,342.967L257.223,342.823L258.902,342.788L260.582,342.967L263.943,343.113L265.623,343.075L267.303,343.04L268.983,343.113L270.663,343.22L272.342,343.185L274.023,343.005L275.703,343.075L277.383,343.005L279.063,343.075L280.743,343.33L282.423,343.04L284.103,342.823L285.783,342.895L287.463,342.715L289.143,342.967L290.823,342.967L292.503,342.823L294.183,342.967L295.863,343.04L297.543,343.005L299.223,342.895L300.902,342.86L302.583,342.715L304.263,343.075L305.943,343.113L307.623,342.895L309.303,343.005L310.983,342.823L312.663,343.075L314.342,343.113L316.023,343.075L317.703,343.113L319.383,343.075L321.063,343.148L322.745,343.075L324.425,343.04L326.105,343.22L327.785,343.113L329.465,343.04L331.145,343.185L332.825,343.04L334.505,343.04L336.185,343.075L337.865,343.22L339.545,343.22L341.225,343.148L342.905,343.148L344.585,342.788L346.265,343.04L347.945,342.895L349.625,343.113L351.305,343.22L352.985,343.148L354.665,343.258L356.345,343.075L358.025,342.967L359.705,343.113L361.385,343.075L363.065,343.005L364.745,343.005L366.425,342.967L368.105,343.04L369.785,343.258L371.465,343.148L373.145,343.365L374.825,343.148L376.505,343.258L378.185,343.185L379.865,343.075L381.545,343.113L383.225,343.005L384.905,343.113L386.585,342.933L388.265,343.258L389.945,343.005L391.625,343.148L393.305,342.86L394.985,343.005L396.665,342.933L398.345,343.04L400.025,343.293L401.705,343.005L403.385,343.04L405.065,343.04L406.745,343.293L408.425,343.113L410.105,343.185L411.785,343.005L413.465,343.148L415.145,342.933L416.825,342.86L418.505,342.967L420.185,343.113L421.865,343.113L423.545,343.04L425.225,343.005L426.905,343.22L428.585,343.22L431.945,343.075L433.625,343.22L436.985,343.075L438.665,342.933L440.345,343.148L442.025,343.148L443.705,343.04L445.385,342.967L447.065,343.005L448.745,342.933L450.428,343.005L452.108,343.075L453.788,343.04L455.467,343.04L457.147,343.005L458.828,343.113L460.508,343.148L462.188,343.04L463.868,343.005L465.548,343.258L467.228,343.075L468.908,342.823L470.587,343.005L472.268,343.005L473.948,342.823L475.628,342.75L477.308,342.823L478.988,343.293L480.668,343.148L482.348,342.967L484.027,342.933L485.708,342.933L487.388,342.75L489.068,342.86L492.428,343.075L494.108,342.86L495.788,342.933L497.467,342.823L499.147,342.678L500.828,342.967L502.508,343.148L504.188,343.113L505.868,343.185L507.548,343.075L509.228,342.933L510.908,342.895L512.587,343.258L514.268,342.895L515.948,342.967L517.628,343.22L519.308,343.185L520.987,343.005L522.668,343.075L524.348,343.04L526.028,342.967L527.708,343.075L529.388,343.075L531.068,343.005L532.747,343.075L534.428,342.933L536.108,343.075L537.788,343.113L539.468,343.04L541.148,342.933L542.828,342.86L544.508,343.113L546.188,343.113L547.867,343.075L549.548,343.005L551.228,343.005L552.908,342.967L554.588,342.967L556.268,342.823L557.948,342.967L559.628,343.075L561.308,343.005L562.988,342.933L564.668,343.185L566.348,343.04L569.708,343.185L571.388,342.967L573.068,343.293L574.747,343.005L576.428,342.86L578.11,343.04L579.79,342.895L581.47,342.933L583.15,343.113L584.83,343.148L586.51,342.86L588.19,343.005L589.87,343.005L591.55,343.113L593.23,343.075L594.91,343.113L596.59,343.04L598.27,343.113L599.95,343.113L601.63,342.933L603.31,343.04L604.99,343.22L606.67,343.113L608.35,342.967L610.03,343.075L611.71,343.148L613.39,342.895L615.07,343.075L618.43,343.005L620.11,343.075L621.79,343.258L623.47,343.075L625.15,343.005L626.83,342.967L628.51,342.967L630.19,343.005L631.87,343.04L633.55,343.148L635.23,343.22L636.91,343.04L638.59,343.113L640.27,343.075L641.95,342.967L643.63,343.005L645.31,342.86L646.99,343.148L648.67,342.895L650.35,343.005L652.03,342.895L653.71,342.86L655.39,342.86L657.07,342.933L658.75,343.185L660.43,343.04L662.11,343.075L663.79,343.075L665.47,343.258L667.15,343.113L668.83,343.22L670.51,343.04L672.19,343.005L673.87,342.933L675.55,343.005L677.23,342.86L678.91,343.04L680.59,342.933L682.27,342.823L683.95,343.075L687.31,343.075L688.99,342.967L690.67,343.04L692.35,343.04L694.03,342.933L695.71,342.895L697.39,343.113L699.07,342.967L700.75,342.895L704.11,343.33L705.793,343.113L707.473,342.933L709.153,342.967L710.833,342.967L712.513,342.933L714.193,342.933L715.872,343.04L717.553,343.04L719.233,343.148L720.913,342.967L722.593,342.967L724.273,342.895L725.953,342.967L727.633,343.005L729.313,343.148L730.992,342.895L732.673,343.075L734.353,343.075L736.033,343.005L737.713,342.967L739.393,343.005L741.073,343.075" style="fill:none;fill-rule:nonzero;stroke:rgb(235,0,65);stroke-width:1.5px;"/>
    <rect x="406.628" y="203.447" width="115.498" height="45.36" style="fill:white;"/>
    <path d="M406.628,248.807L522.125,248.807L522.125,203.447L406.628,203.447L406.628,248.807" style="fill:none;fill-rule:nonzero;stroke:black;stroke-width:1px;"/>
    <path d="M412.628,218.567L448.628,218.567" style="fill:none;fill-rule:nonzero;stroke:rgb(65,0,235);stroke-width:1.5px;"/>
    <g transform="matrix(1,0,0,1,454.627,222.942)">
        <text x="0px" y="0px" style="font-family:'ArialMT', 'Arial', sans-serif;font-size:12px;">Metropolis</text>
    </g>
    <path d="M412.628,233.687L448.628,233.687" style="fill:none;fill-rule:nonzero;stroke:rgb(235,0,65);stroke-width:1.5px;"/>
    <g transform="matrix(1,0,0,1,454.627,238.062)">
        <text x="0px" y="0px" style="font-family:'ArialMT', 'Arial', sans-serif;font-size:12px;">Glauber</text>
    </g>
    <g transform="matrix(1,0,0,1,153.06,117.241)">
        <text x="-16.878px" y="0px" style="font-family:'ArialMT', 'Arial', sans-serif;font-size:14.75px;">T<tspan x="-8.135px -4.037px " y="0px 0px "> =</tspan> 2</text>
    </g>
    <g transform="matrix(1,0,0,1,321.062,117.241)">
        <text x="-20.98px" y="0px" style="font-family:'ArialMT', 'Arial', sans-serif;font-size:14.75px;">T<tspan x="-12.236px -8.138px " y="0px 0px "> =</tspan> 10</text>
    </g>
    <g transform="matrix(1,0,0,1,67.9136,-4.49546)">
        <path d="M169.053,356.405L169.053,11.811" style="fill:none;fill-rule:nonzero;stroke:black;stroke-width:1px;stroke-dasharray:10,3,0,0;"/>
    </g>
</svg>
